<svg xmlns="http://www.w3.org/2000/svg" xmlns:xlink="http://www.w3.org/1999/xlink" version="1.1" id="Layer_1" x="0px" y="0px" width="100px" height="100px" viewBox="0 0 100 100" style="enable-background:new 0 0 100 100;" xml:space="preserve">
<g>
	<g>
		<path d="M61.207,84.922H38.794l-4.266,4.698l-6.708-2.972c-0.901,3.458-1.792,6.882-1.832,7.059    c-0.068,0.299,0.114,1.74,2.601,3.399c2.487,1.657,4.071,2.216,7.471-0.271c3.398-2.486,4.848-2.797,6.672-2.797    c1.824,0,3.398,0,3.398,0l0.716-1.632h6.248l0.776,1.632c0,0,1.574,0,3.398,0c1.824,0,3.274,0.311,6.672,2.797    c3.399,2.487,4.984,1.929,7.471,0.271c2.486-1.659,2.669-3.101,2.601-3.399c-0.04-0.177-0.931-3.602-1.832-7.059l-6.709,2.972    L61.207,84.922z"/>
	</g>
	<path d="M84.954,51.827l-2.859-12.433l0.373-26.607c0,0-0.373-0.87-5.098-4.6c-4.724-3.73-11.936-6.714-11.936-6.714l-5.347,16.406   H39.912L34.565,1.473c0,0-7.211,2.984-11.936,6.714c-4.725,3.73-5.098,4.6-5.098,4.6l0.373,26.607l-2.859,12.433   c0,0-0.871,5.348,1.865,8.952c2.735,3.606,11.314,13.802,11.563,17.78c0.248,3.979,0.125,5.222,0.125,5.222l5.409,2.201   l3.792-4.066h9.938h4.526h9.938l3.792,4.066l5.408-2.201c0,0-0.124-1.243,0.125-5.222c0.249-3.979,8.828-14.174,11.563-17.78   C85.825,57.175,84.954,51.827,84.954,51.827z M39.561,49.092c0,0-6.161,1.888-11.048,1.523c-4.988-0.373-8.295-2.144-8.104-3.264   c0.191-1.119,1.95-5.926,1.95-5.926l17.24,5.429L39.561,49.092z M71.487,50.615c-4.887,0.365-11.048-1.523-11.048-1.523   l-0.038-2.237l17.24-5.429c0,0,1.758,4.807,1.95,5.926C79.782,48.471,76.475,50.242,71.487,50.615z"/>
</g>
</svg>